<svg width="15" height="25" viewBox="0 0 15 25" fill="none" xmlns="http://www.w3.org/2000/svg">
<path d="M8.59594 24.9998L11.2881 22.3081L14.7637 23.8238L12.2838 10.4832L6.11399 11.6592L8.59594 24.9998Z" fill="#373737"/>
<path d="M6.18113 24.9998L3.48899 22.3081L0.0134029 23.8238L2.49536 10.4832L8.66309 11.6592L6.18113 24.9998Z" fill="#444242"/>
<path d="M7.50106 0L5.94268 0.879343L4.16348 0.771844L3.13588 2.27468L1.4862 2.95838L1.19321 4.74071L0 6.0823L0.501061 7.81519L0 9.54807L1.19321 10.8897L1.4862 12.672L3.13588 13.3557L4.16348 14.8327L5.94268 14.7252L7.50106 15.6046L9.05732 14.7252L10.8386 14.8327L11.8641 13.3557L13.5138 12.672L13.8068 10.8897L15 9.54807L14.4989 7.81519L15 6.0823L13.8068 4.74071L13.5138 2.95838L11.8641 2.27468L10.8386 0.771844L9.05732 0.879343L7.50106 0Z" fill="#59595C"/>
<path d="M7.50176 1.25122L6.1939 1.98866L4.69921 1.89837L3.83721 3.13891L2.45293 3.73875L2.20664 5.23299L1.20452 6.35958L1.6249 7.81512L1.20452 9.27066L2.20664 10.3972L2.45293 11.8915L3.83721 12.4655L4.69921 13.7061L6.1939 13.6158L7.50176 14.3532L8.80749 13.6158L10.3022 13.7061L11.1642 12.4655L12.5485 11.8915L12.7948 10.3972L13.7969 9.27066L13.3765 7.81512L13.7969 6.35958L12.7948 5.23299L12.5485 3.73875L11.1642 3.13891L10.3022 1.89837L8.80749 1.98866L7.50176 1.25122Z" fill="#444242"/>
<path d="M7.50047 1.65112L6.27118 2.34557L4.8699 2.25957L4.06098 3.42486L2.7595 3.986L2.5302 5.38994L1.58965 6.44773L1.98455 7.81512L1.58965 9.18036L2.5302 10.2382L2.7595 11.6421L4.06098 12.1817L4.8699 13.3449L6.27118 13.2589L7.50047 13.9533L8.72765 13.2589L10.1289 13.3449L10.9378 12.1817L12.2393 11.6421L12.4686 10.2382L13.4092 9.18036L13.0143 7.81512L13.4092 6.44773L12.4686 5.38994L12.2393 3.986L10.9378 3.42486L10.1289 2.25957L8.72765 2.34557L7.50047 1.65112Z" fill="white"/>
<path d="M6.37305 10.392C6.50977 10.536 6.74219 10.536 6.87891 10.392L10.8984 6.15903C11.0352 6.01505 11.0352 5.77029 10.8984 5.62631L10.4062 5.10798C10.2695 4.96401 10.0508 4.96401 9.91406 5.10798L6.63281 8.56348L5.08789 6.95092C4.95117 6.80694 4.73242 6.80694 4.5957 6.95092L4.10352 7.46924C3.9668 7.61322 3.9668 7.85798 4.10352 8.00196L6.37305 10.392Z" fill="#59595C"/>
</svg>
