<?xml version="1.0" encoding="utf-8"?>
<!-- Generator: Adobe Illustrator 22.0.1, SVG Export Plug-In . SVG Version: 6.00 Build 0)  -->
<svg version="1.1" id="Camada_1" xmlns="http://www.w3.org/2000/svg" xmlns:xlink="http://www.w3.org/1999/xlink" x="0px" y="0px"
	 viewBox="0 0 170.1 170.1" style="enable-background:new 0 0 170.1 170.1;" xml:space="preserve">
<style type="text/css">
	.st0{opacity:0.3;fill:#888888;enable-background:new    ;}
</style>
<path class="st0" d="M85,0C38.1,0,0,38.1,0,85s38.1,85,85,85s85-38.1,85-85S132,0,85,0z M133.1,117.8c4.2,4.2,4.2,11.1,0,15.3
	s-11.1,4.2-15.3,0L85,100.3l-32.8,32.8c-4.2,4.2-11.1,4.2-15.3,0s-4.2-11.1,0-15.3L69.8,85L37,52.3c-4.2-4.2-4.2-11.1,0-15.3
	s11.1-4.2,15.3,0L85,69.8L117.8,37c4.2-4.2,11.1-4.2,15.3,0s4.2,11.1,0,15.3L100.3,85L133.1,117.8z"/>
</svg>
